<?xml version="1.0" encoding="UTF-8"?><svg xmlns="http://www.w3.org/2000/svg" xmlns:xlink="http://www.w3.org/1999/xlink" viewBox="0 0 314.61 300.35"><defs><style>.m,.n,.o,.p,.q,.r{stroke-linecap:round;stroke-linejoin:round;}.m,.s{fill:#fff;}.m,.o,.q,.t,.u{stroke:#000;}.m,.v,.w,.q{stroke-width:3px;}.n{stroke:#af5b73;}.n,.x,.v,.q,.y,.r{fill:none;}.n,.p,.r{stroke-width:.63px;}.x{stroke:#f4b4d1;stroke-width:.02px;}.x,.v,.w,.t,.u{stroke-miterlimit:10;}.a`{fill:#9e455f;}.o{fill:#dd1948;stroke-width:.94px;}.v,.w{stroke:#c74f76;}.p{fill:url(#j);}.p,.r{stroke:#c35d6b;}.w{fill:#efcbd2;opacity:.12;}.aa{fill:url(#f);}.ab{fill:#dc81b1;}.ac{fill:#9b4d00;}.ad{fill:url(#g);}.ae{fill:url(#i);}.af{fill:#d3517c;}.ag{fill:url(#h);}.ah{fill:url(#d);}.ai{fill:url(#e);}.aj{fill:#aaaeb0;}.ak{fill:#b52257;}.t{fill:#e07500;}.u{fill:#225405;}</style><radialGradient id="d" cx="140.4" cy="141.13" fx="140.4" fy="141.13" r="6.73" gradientTransform="translate(202.95 -95.46) rotate(66.67) scale(1 .8)" gradientUnits="userSpaceOnUse"><stop offset="0" stop-color="#e9759b"/><stop offset=".35" stop-color="#ec8fb0"/><stop offset="1" stop-color="#f3cae0"/></radialGradient><radialGradient id="e" cx="197.63" cy="275.37" fx="197.63" fy="275.37" r="6.73" gradientTransform="translate(458.05 59.53) rotate(127.05) scale(1 .8)" xlink:href="#d"/><radialGradient id="f" cx="359.2" cy="275.51" fx="359.2" fy="275.51" r="6.73" gradientTransform="translate(440.33 408.57) rotate(-163.3) scale(1 .8)" xlink:href="#d"/><radialGradient id="g" cx="405.75" cy="128.18" fx="405.75" fy="128.18" r="6.73" gradientTransform="translate(73.21 558.35) rotate(-93.94) scale(1.13 .84)" xlink:href="#d"/><radialGradient id="h" cx="258.68" cy="16.16" fx="258.68" fy="16.16" r="6.73" gradientTransform="translate(-137.76 102.3) rotate(-6.27) scale(1.1 .79)" xlink:href="#d"/><radialGradient id="i" cx="148.56" cy="145.24" fx="148.56" fy="145.24" r="3.05" gradientTransform="translate(202.2 -95.13) rotate(66.67) scale(1 .8)" gradientUnits="userSpaceOnUse"><stop offset="0" stop-color="#ffe413"/><stop offset=".63" stop-color="#f6e967"/><stop offset="1" stop-color="#f2ed94"/></radialGradient><radialGradient id="j" cx="152.69" cy="143.51" fx="152.69" fy="143.51" r="1.84" gradientTransform="translate(61.25 250.09) rotate(-93.94) scale(1 .75)" gradientUnits="userSpaceOnUse"><stop offset="0" stop-color="#e9759b"/><stop offset=".35" stop-color="#ec8fb0"/><stop offset="1" stop-color="#f3cae0"/></radialGradient></defs><g id="a"/><g id="b"/><g id="c"><path class="s" d="M202.32,177.09s20.67,14.41,20.21,24.36l-3.38,37.05-82.38-2.14,3.23-57.91,62.31-1.36Z"/><g><path class="s" d="M126.95,159.28c-9.36-4.91-19.23-8.86-29.4-11.76-3.55-1.01-6.34-2.63-9.75-4.09-3.8-1.63-7.11-3.47-10.37-6.03-.89-.7-1.35-1.79-1.32-2.92,.05-1.63,.93-2.45,1.51-3.97,.66-1.73,1.02-3.79,1.13-5.64,.22-3.58-1.83-7.11-4.82-9.29-2.05-1.5-5.28-1.12-4.74-3.6,.88-3.99,.8-8.13,.73-12.21-.04-1.88-.76-6.36-3.81-5.2-.75,.29-1.23,1.05-1.47,1.82-1.54,4.86-2.42,10.05-3.61,15.01l-5.44-12.53c-.79-1.82-2.26-3.77-4.52-2.73-2.77,1.28-2.47,4.82-1.96,7.27,.71,3.35,1.84,6.56,3.01,9.77,.09,.24,.18,.5,.1,.74-.09,.27-.35,.43-.6,.56-2.88,1.48-6.6,1.23-9.04,3.36-2.06,1.8-2.59,4.84-2.17,7.54,.59,3.84,2.81,7.3,5.65,9.96,2.6,2.44,6.02,4.02,8.92,6.09,3.3,2.35,4.29,11.9,6.4,15.19,2.44,3.8,6.17,8.37,9.61,11.27,4.78,4.02,10.09,7.98,14.82,12.06,6.62,5.7,11.16,6.9,13.44,15.32,1.15,4.26,1.66,8.68,1.5,13.09s-1.64,8.53-3.33,12.67"/><path d="M127.77,157.88c-8.46-4.42-17.31-8.1-26.43-10.93-2.18-.68-4.39-1.23-6.51-2.11s-4.13-1.91-6.21-2.82c-1.97-.86-3.9-1.79-5.75-2.88-.92-.54-1.81-1.12-2.69-1.72-.8-.56-1.98-1.16-2.32-2.13-.29-.81-.01-1.59,.36-2.32,.48-.93,.93-1.85,1.25-2.86,.62-1.98,1.04-4.28,.9-6.36-.26-3.88-2.59-7.68-5.88-9.76-.62-.39-1.34-.67-2.03-.91-.52-.19-1.42-.3-1.81-.73,.07,.08,.1,.3,.1,.05,0-.51,.22-1.12,.3-1.62,.19-1.23,.33-2.47,.41-3.71,.15-2.36,.13-4.72,.07-7.08-.03-1.29-.18-2.61-.61-3.83-.5-1.43-1.41-2.86-2.96-3.29-1.92-.53-3.84,.62-4.63,2.36-1.08,2.38-1.55,5.19-2.12,7.72-.6,2.67-1.14,5.34-1.77,8l2.97-.39-4.66-10.74c-1.08-2.48-2.4-5.7-5.63-5.61-2.78,.07-4.58,2.57-4.9,5.11-.35,2.71,.48,5.54,1.24,8.11,.48,1.64,1.04,3.25,1.61,4.85,.03,.09,.46,1.32,.48,1.31l.24-.53c-.21,.11-.42,.2-.64,.28-.7,.28-1.45,.46-2.18,.63-2.82,.69-5.69,1.34-7.53,3.79-3.83,5.08-1.05,12.3,2.53,16.65,2.04,2.48,4.62,4.27,7.33,5.94,2.1,1.29,4.11,2.22,5.22,4.48,1.93,3.94,2.12,8.63,4.35,12.43,3.29,5.59,8.01,10.22,13,14.26,2.86,2.31,5.76,4.57,8.6,6.89,2.41,1.97,4.75,4.02,7.24,5.9,2.01,1.52,4.1,2.99,5.77,4.91,1.93,2.23,2.89,5.01,3.56,7.84,.94,3.97,1.35,8.14,1.04,12.21s-1.75,7.69-3.22,11.31c-.33,.82,.36,1.78,1.13,2,.93,.27,1.67-.33,2-1.13,1.31-3.22,2.54-6.48,3.07-9.93s.42-6.85,0-10.24c-.67-5.39-2-10.94-5.86-14.97-1.56-1.63-3.41-2.96-5.2-4.31-2.36-1.78-4.59-3.71-6.87-5.59-5.07-4.17-10.68-7.94-15.19-12.74-2.11-2.25-4.04-4.67-5.75-7.25-1.15-1.73-1.69-3.65-2.26-5.63-1.18-4.06-2.1-8.75-5.82-11.26-2.52-1.7-5.32-3.06-7.61-5.09s-4.12-4.51-5.03-7.38c-.76-2.4-1.04-5.56,.74-7.61s5.03-2.04,7.44-2.86c1.35-.46,3.01-1.07,3.18-2.7,.1-1-.46-2.01-.79-2.92s-.62-1.75-.91-2.64c-.86-2.65-2.21-6.02-1.68-8.88,.16-.85,.8-2.12,1.87-2.01,1.32,.13,2.02,2.63,2.43,3.57l4.85,11.19c.57,1.3,2.67,.88,2.97-.39,1.06-4.48,1.87-9.02,3.14-13.45,.18-.62,.71-3.22,1.71-2.09,.59,.67,.74,1.94,.82,2.8,.39,4.26-.04,8.55-.68,12.74-.57,3.72,3.36,3.6,5.53,5.16,3.17,2.27,4.42,5.9,3.83,9.66-.17,1.09-.42,2.2-.82,3.24-.32,.85-.83,1.61-1.17,2.45-.7,1.7-.62,3.69,.44,5.23s3.14,2.73,4.75,3.74c1.8,1.14,3.69,2.13,5.63,3.01,3.87,1.76,7.7,3.72,11.79,4.92,9.88,2.88,19.44,6.7,28.56,11.47,1.85,.97,3.5-1.84,1.64-2.81h0Z"/></g><g><path class="s" d="M213.36,178.93c10.48-1.38,21.1-1.69,31.65-.91,6.73,.5,13.9-.57,20.47-1.96,1.37-.29,2.87-.69,3.67-1.85,.92-1.31,.61-3.07,.49-4.67-.24-3.19,.46-6.5,2.3-9.11s4.9-4.42,8.09-4.43c1.27,0,2.8,.16,3.53-.88,.3-.41,.38-.94,.47-1.44,.71-4.2,2.06-8.29,3.97-12.09,.47-.94,1.01-1.9,1.88-2.51s2.15-.75,2.94-.04c.87,.77,.8,2.11,.67,3.26-.19,1.62-2.35,11.98-1.18,12.73,1.39,.89,7.74-7.08,8.85-8.24,1.37-1.43,3.42-2.76,5.18-1,2.16,2.15,.66,5.38-.67,7.5-1.82,2.9-3.99,5.53-6.2,8.13-.16,.19-.34,.41-.35,.66-.01,.28,.18,.53,.37,.73,2.2,2.38,5.77,3.43,7.33,6.27,1.31,2.4,.76,5.44-.56,7.83-3.95,7.15-13.36,10.67-20.54,12.64-3.9,1.07-6.8,7.1-9.92,9.47-9.33,7.07-21.55,10.7-32.7,13.97-4.09,1.2-8.32,2.32-11.79,4.79-8.9,6.34-12.76,10.42-12.39,20.67"/><path d="M213.36,180.23c6.29-.82,12.63-1.27,18.97-1.33,3.25-.03,6.51,.05,9.75,.23,3,.16,5.97,.39,8.98,.25s6.21-.53,9.28-1.03c2.55-.42,5.48-.67,7.85-1.77,2.57-1.19,3.04-3.63,2.83-6.22s-.06-5.38,1.2-7.84,3.32-4.27,5.91-4.95c2.02-.53,4.69,.34,6.27-1.4,.86-.95,.91-2.28,1.15-3.48,.3-1.49,.68-2.96,1.14-4.41,.43-1.34,.91-2.67,1.47-3.96s1.14-2.98,2.19-3.93c.36-.32,1.03-.72,1.53-.42s.4,1.18,.37,1.63c-.01,.24-.04,.47-.06,.71,.04-.36,.01-.09,0,0-.04,.27-.09,.54-.13,.81-.26,1.53-.54,3.06-.78,4.59-.26,1.67-.52,3.36-.6,5.04-.05,1.01-.13,2.43,.68,3.19,2.08,1.94,5.48-2.34,6.67-3.63,1.08-1.16,2.11-2.37,3.14-3.57,.85-.98,2.25-2.94,3.71-2.4,2.52,.94,.69,4.59-.17,6.02-1.56,2.58-3.47,4.94-5.41,7.25-.73,.87-1.78,1.82-1.38,3.09,.32,1.02,1.4,1.79,2.21,2.41,1.75,1.34,4.03,2.32,5.3,4.2,2.99,4.42-1.88,9.96-5.27,12.47-3.75,2.79-8.17,4.54-12.61,5.89-1.94,.59-3.68,1.04-5.27,2.36-1.72,1.42-3.05,3.25-4.45,4.98-3.14,3.86-7.52,6.33-11.94,8.5-4.99,2.44-10.24,4.28-15.54,5.94s-10.62,2.8-15.61,4.96c-2.39,1.04-4.47,2.48-6.54,4.05-1.74,1.31-3.45,2.68-4.98,4.23-2.59,2.64-4.46,5.82-5.17,9.47-.4,2.07-.49,4.19-.42,6.29,.05,1.67,2.65,1.68,2.6,0-.13-4.02,.39-7.98,2.69-11.37s6.22-6.37,9.76-8.66c4.61-2.97,10.36-4.03,15.55-5.6s10.74-3.4,15.9-5.65c2.57-1.12,5.09-2.37,7.5-3.8,2.09-1.23,4.3-2.56,6.04-4.26,2.9-2.83,4.85-7.3,9-8.47,4.46-1.26,8.93-2.87,12.89-5.32s7.75-5.96,8.96-10.55c.65-2.46,.41-5.12-1.14-7.19-1.41-1.88-3.51-2.95-5.37-4.3-.42-.3-1.05-.7-1.35-1.13-.58-.84-.08,.06,.04-.16,.2-.37,.63-.74,.9-1.07,.96-1.16,1.91-2.33,2.81-3.53,1.56-2.07,3.24-4.3,3.99-6.82,.66-2.23,.29-4.76-1.72-6.18s-4.41-.44-6.07,1.11c-2.15,2.02-3.86,4.51-5.98,6.58-.49,.48-.99,.97-1.55,1.37-.14,.1-.48,.29-.51,.33,.1-.11-.17,.12-.18,.05-.03-.18,.88,.37,.9,.38,.27,.1-.1,.17,.02-.03,.05-.08,0,.14-.02-.13s-.02-.53-.02-.79c0-.8,.09-1.61,.18-2.41,.33-2.92,1.06-5.8,1.36-8.72,.23-2.24-.59-4.81-3.26-4.85-2.84-.04-4.24,2.68-5.27,4.9-1.26,2.72-2.27,5.56-2.96,8.49-.18,.74-.33,1.48-.47,2.23-.09,.51-.08,1.26-.5,1.61-.71,.57-2.59,.18-3.46,.28-5.26,.64-9.16,5.02-10.23,10.05-.27,1.27-.4,2.58-.37,3.88s.45,2.82,.08,4.1-1.72,1.65-2.9,1.92c-1.47,.34-2.96,.61-4.44,.88-3.14,.56-6.31,.98-9.5,1.15s-6.29-.05-9.45-.23c-6.42-.35-12.85-.3-19.26,.14-3.16,.22-6.32,.54-9.47,.95-1.64,.21-1.66,2.82,0,2.6h0Z"/></g><path class="m" d="M141.77,95.17s-24.66,7.76-29.09,34.25c0,0-10.68,34.74,40.05,54.01,0,0,65.75,22.68,87.09-7.85,0,0,19.63-23.78,1.05-57.98,0,0,27.19-25.78,33.64-44.39,1.66-4.79,1.02-10.11-2.02-14.17-3.7-4.93-10.9-9.98-23.78-4.34,0,0-20.7,8.2-24.91,50.26,0,0-31.29-18.7-55.69-15.22,0,0,10.43-72.63-25.75-63.44,0,0-27.92-.26-.59,68.88Z"/><path d="M185.87,146.06c-.26-.26-.5-.54-.73-.83l.41,.53c-.31-.41-.58-.83-.79-1.3l.26,.62c-.14-.34-.24-.68-.29-1.04l.09,.69c-.04-.33-.04-.65,0-.97l-.09,.69c.05-.31,.12-.61,.24-.9l-.26,.62c.11-.25,.24-.48,.4-.7l-.41,.53c.16-.21,.35-.4,.56-.57l-.53,.41c.24-.18,.5-.33,.77-.45l-.62,.26c.27-.11,.55-.18,.83-.22l-.69,.09c.23-.02,.44-.02,.67,0l-.69-.09c.3,.04,.58,.12,.86,.23l-.62-.26c.31,.14,.6,.31,.87,.51l-.53-.41c.26,.21,.5,.43,.71,.69l-.41-.53c.22,.29,.4,.6,.54,.93l-.26-.62c.16,.4,.26,.81,.32,1.24l-.09-.69c.06,.48,.06,.96,0,1.44l.09-.69c-.04,.26-.1,.5-.2,.75l.26-.62c-.08,.18-.17,.34-.29,.49l.41-.53c-.11,.13-.22,.24-.35,.35l.53-.41c-.13,.1-.27,.18-.42,.25l.62-.26c-.14,.06-.28,.09-.43,.12l.69-.09c-.18,.02-.35,.02-.53,0l.69,.09c-.18-.03-.35-.08-.52-.15l.62,.26c-.17-.08-.32-.17-.47-.28l.53,.41c-.15-.12-.27-.25-.39-.4l.41,.53c-.1-.14-.18-.29-.26-.45l.26,.62c-.07-.18-.12-.35-.15-.54l.09,.69c-.02-.18-.02-.36,0-.54l-.09,.69c.04-.26,.1-.49,.2-.73l-.26,.62c.12-.28,.28-.53,.46-.77l-.41,.53,.07-.09c.45-.56,.76-1.09,.76-1.84,0-.64-.28-1.4-.76-1.84s-1.14-.79-1.84-.76c-.64,.03-1.41,.23-1.84,.76-.58,.72-1.01,1.38-1.29,2.26-.26,.83-.25,1.72-.07,2.56,.35,1.63,1.69,2.87,3.22,3.38s3.31,.01,4.45-1.12c1.05-1.05,1.46-2.52,1.46-3.97,0-1.31-.31-2.68-.98-3.81-.8-1.35-2.07-2.29-3.51-2.83s-3.02-.3-4.39,.34c-1.02,.48-1.97,1.41-2.46,2.42-.71,1.45-.93,3.11-.44,4.67,.44,1.42,1.31,2.63,2.33,3.68,.95,.98,2.73,1.02,3.67,0s1.01-2.63,0-3.67h0Z"/><path d="M166.07,110.64s-10.66,.77-12.49,12.3c0,0-2.88,11.25,5.43,13.52,0,0,6.02,1.61,11.82-8.47,0,0,5.13-15.97-4.76-17.35Z"/><path class="s" d="M155.78,130.45c2.51,0,2.51-3.9,0-3.9s-2.51,3.9,0,3.9h0Z"/><path d="M219.92,124.26s-10.66,.77-12.49,12.3c0,0-2.88,11.25,5.43,13.52,0,0,6.02,1.61,11.82-8.47,0,0,5.13-15.97-4.76-17.35Z"/><path class="s" d="M210.44,143.86c2.51,0,2.51-3.9,0-3.9s-2.51,3.9,0,3.9h0Z"/><path d="M183.55,150.32c-.01,.46-.02,.97-.22,1.4-.26,.58-.9,.64-1.46,.71-1.26,.16-2.59,.19-3.86,.09-2.15-.17-4.84-1.28-5-3.78-.04-.66-1.08-.67-1.04,0,.19,3.12,3.27,4.6,6.04,4.82,1.57,.12,3.38,.15,4.9-.26,1.37-.37,1.64-1.72,1.68-2.97,.02-.67-1.02-.67-1.04,0h0Z"/><path d="M183.9,150.32c-.33,.65-.66,1.37-.6,2.12s.5,1.22,1.06,1.65c1.23,.95,2.65,1.76,4.08,2.35,2.46,1.02,5.73,1.04,7.29-1.48,.35-.57-.54-1.09-.9-.52-1.22,1.97-3.84,1.88-5.76,1.15-1.12-.43-2.18-1.04-3.18-1.68-.49-.31-1.24-.69-1.49-1.24-.26-.58,.12-1.3,.38-1.81,.3-.6-.6-1.12-.9-.52h0Z"/><path class="o" d="M173.59,150.96s-4.58,13.96,4.82,16.61c0,0,10.01,3.78,15.39-11.68,0,0-5.62,1.46-10.1-3.47,0,0-7.6,1.65-10.11-1.46Z"/><path class="s" d="M164.41,112.96c-2.43-.55-5.17,.24-6.79,2.17-1.83,2.17-2.81,5.22-2.22,8.02,.16,.74,1.07,1.24,1.78,1.01,.78-.25,1.18-.98,1.01-1.78-.03-.14-.06-.29-.08-.43,.03,.27,0-.18,0-.19-.01-.26,0-.53,.01-.79,0-.09,.03-.32,0-.11,.02-.14,.05-.28,.08-.42,.06-.28,.14-.56,.22-.84,.04-.12,.08-.23,.12-.34,.03-.07,.05-.14,.08-.2-.04,.1-.04,.1,0,0,.11-.25,.23-.49,.36-.73,.14-.27,.29-.53,.45-.78,.06-.09,.12-.19,.18-.28,.03-.05,.07-.1,.11-.15-.09,.12-.1,.14-.04,.06,.16-.16,.29-.33,.46-.48,.09-.08,.18-.16,.27-.23-.16,.13-.06,.05,.05-.02,.18-.12,.37-.24,.57-.34,.11-.06,.22-.11,.33-.16-.3,.14,.06-.02,.1-.03,.21-.07,.42-.13,.64-.18,.04,0,.43-.08,.22-.05s.13-.01,.17-.01c.24-.02,.48-.02,.72,0,.08,0,.44,.07,.09,0,.12,.02,.24,.04,.35,.07,.74,.17,1.6-.23,1.78-1.01,.17-.74-.22-1.6-1.01-1.78h0Z"/><path class="s" d="M219.33,126.79c-2.39-.83-5.22-.14-7.02,1.63-.91,.9-1.67,2.09-2.18,3.26-.56,1.29-.88,2.67-.75,4.08,.07,.75,.61,1.48,1.45,1.45,.72-.03,1.53-.64,1.45-1.45-.03-.27-.04-.53-.03-.8,0-.13,.02-.26,.02-.4,.02-.17,.02-.17,0,0,0-.06,.02-.13,.03-.19,.05-.26,.11-.51,.19-.76,.04-.13,.08-.25,.12-.37,.02-.04,.16-.39,.1-.26s.1-.21,.12-.25c.07-.14,.14-.28,.22-.42,.13-.24,.27-.47,.42-.7s.31-.45,.48-.67c-.14,.18,.06-.08,.1-.12,.08-.09,.15-.18,.23-.26s.16-.16,.25-.24c.04-.03,.34-.27,.07-.07,.19-.14,.38-.27,.58-.38,.1-.06,.21-.11,.31-.16,.34-.17-.27,.09,.08-.04,.22-.08,.44-.15,.67-.21,.11-.03,.23-.05,.34-.07,.33-.08-.23,0,.08-.01,.23-.02,.46-.03,.7-.03,.14,0,.27,.02,.41,.03,.11,.01,.08,0-.1-.01,.06,0,.11,.02,.17,.03,.25,.05,.49,.12,.73,.2,.72,.25,1.61-.28,1.78-1.01,.18-.81-.24-1.51-1.01-1.78h0Z"/><g><path class="aj" d="M165.64,252.46l-130.47-14.73c-5.85-.66-3.2-2.15,5.87-3.32l14.73-1.89c9.07-1.16,21.09-1.88,26.7-1.6l125.21,6.31c5.61,.28,3.73,2.99-4.18,6.01l-12.84,4.91c-7.91,3.02-19.17,4.96-25.01,4.3Z"/><path class="q" d="M165.64,252.46l-130.47-14.73c-5.85-.66-3.2-2.15,5.87-3.32l14.73-1.89c9.07-1.16,21.09-1.88,26.7-1.6l125.21,6.31c5.61,.28,3.73,2.99-4.18,6.01l-12.84,4.91c-7.91,3.02-19.17,4.96-25.01,4.3Z"/></g><g><path class="aj" d="M182.94,253.92l-144.34-9.2c-5.94-.38-12.03-5.9-13.53-12.26l-15.57-67.91c-1.41-6.31,2.43-11.38,8.51-11.27l147.78,2.56c6.08,.11,12.05,5.83,13.27,12.72l12.62,73.6c1.14,6.85-2.79,12.13-8.73,11.75Z"/><path class="q" d="M182.94,253.92l-144.34-9.2c-5.94-.38-12.03-5.9-13.53-12.26l-15.57-67.91c-1.41-6.31,2.43-11.38,8.51-11.27l147.78,2.56c6.08,.11,12.05,5.83,13.27,12.72l12.62,73.6c1.14,6.85-2.79,12.13-8.73,11.75Z"/></g><g><polygon class="u" points="99.48 195.8 100.69 190.39 102.72 194.35 105.54 195.57 105.57 197.59 109.06 200.46 103.61 200.46 99.48 195.8"/><path class="t" d="M104.43,206.53c5.74-2.27-3.64-10.27-3.64-10.27-7.97-10.88-14.23,13.73-14.23,13.73-1.2,3.22,5.36,1.61,10.85-.37,0,0-1.6-9.04,7.03-3.09Z"/><path class="ac" d="M92.72,197.97c1.02,.83,2.04,1.66,3.07,2.5,.14,.12,.27,.2,.44,.21,.15,.01,.32-.04,.4-.15,.17-.21,.19-.65-.09-.88-1.03-.84-2.05-1.67-3.07-2.5-.14-.11-.26-.19-.43-.2-.14,0-.31,.05-.4,.16-.18,.21-.2,.64,.08,.87h0Z"/><path class="ac" d="M91.65,200.04c.68,.55,1.36,1.11,2.05,1.67,.14,.11,.27,.2,.44,.21,.15,.01,.32-.04,.41-.15,.09-.11,.16-.26,.13-.42-.02-.15-.09-.34-.22-.45-.68-.56-1.37-1.12-2.05-1.67-.14-.11-.26-.2-.44-.21-.15,0-.31,.05-.41,.15-.09,.11-.16,.26-.14,.42,.02,.15,.08,.34,.21,.44h0Z"/></g><g><path class="ah" d="M149.28,80.74s-3.81-7,2.62-9.12c0,0,1.69-.2,2.46,1.3,0,0,2.99-2.01,4.32-.75,0,0,4.47,3.97-2.1,11.45l-2.45,2.76s-3.81-2.39-4.85-5.63Z"/><path class="ai" d="M158.15,80.93s4.21-6.77,9.22-2.23c0,0,1.01,1.37,.09,2.78,0,0,3.23,1.61,2.79,3.39,0,0-1.24,5.84-10.99,3.83l-3.61-.76s.2-4.5,2.5-7Z"/><path class="aa" d="M161.28,88.28s7.81,1.59,5.3,7.87c0,0-.93,1.42-2.58,1.05,0,0-.39,3.59-2.21,3.79,0,0-5.91,.87-7.42-8.97l-.54-3.65s4.29-1.38,7.44-.09Z"/><path class="ad" d="M155.63,94.82s1.37,8.86-5.73,8.67c0,0-1.74-.42-2-2.3,0,0-3.66,1-4.55-.84,0,0-3.07-5.89,6.02-11.34l3.38-2s2.96,3.98,2.88,7.81Z"/><path class="ag" d="M146.11,90.11s-8.56,1.66-8.64-5.04c0,0,.35-1.66,2.17-1.98,0,0-1.1-3.41,.65-4.32,0,0,5.62-3.14,11.24,5.2l2.06,3.1s-3.76,2.96-7.49,3.04Z"/><path class="ae" d="M156.98,85.55s-1.26-2.47-4.02-.82c0,0-2.98,1.74-1.45,3.77,0,0,.49,2.28,3.53,1.69,0,0,3.84-1.31,2.17-4.13-1.68-2.82-.22-.5-.22-.5Z"/><path class="r" d="M152.46,89.98l-3.12,4.18"/><path class="n" d="M153.6,89.49l.05,5.22"/><path class="p" d="M155.66,88.62l3.81,3.57"/><path class="r" d="M161.77,84.34l-4.71,2.25"/><path class="r" d="M157.62,79.73l-2.39,4.64"/><path class="r" d="M152.13,81.07l2.17,5.03"/><path class="r" d="M153.49,86.6l-4.73-2.21"/><path class="r" d="M152.45,88.18l-5.21-.3"/><path class="r" d="M159.15,87.83l-3.98,.28"/><path class="r" d="M156.96,85.69l-1.55,1.75"/><path class="r" d="M153.44,86.82l-1.91,.14"/><path class="r" d="M154.35,88.36l1.65,2.93"/><circle class="a`" cx="159.91" cy="92.53" r=".47"/><circle class="a`" cx="153.76" cy="95.28" r=".47"/><circle class="a`" cx="149.1" cy="94.56" r=".47"/><circle class="a`" cx="146.83" cy="87.86" r=".47"/><circle class="a`" cx="148.51" cy="84.29" r=".47"/><circle class="a`" cx="151.43" cy="87" r=".47"/><circle class="a`" cx="156.06" cy="91.45" r=".47"/><circle class="a`" cx="159.27" cy="87.78" r=".47"/><circle class="a`" cx="157" cy="85.54" r=".47"/><circle class="a`" cx="162.03" cy="84.22" r=".47"/><circle class="a`" cx="157.72" cy="79.46" r=".47"/><circle class="a`" cx="152.06" cy="80.87" r=".47"/><path class="x" d="M154.14,87.11s.04-.2-.12-.18c0,0-.07,0-.06,.14,0,0,.17,.23-.02,.23-.19,0-.22-.31-.22-.31,0,0,.08-.17,.11-.05,.03,.12,.12,.43,.12,.43,0,0,.09,.13,.14,.04,.06-.09-.18-.07-.19,0,0,0-.03,.04,.04,.08,0,0,.09,.09,.19,.09,0,0,.05-.08-.03-.05s-.18,.07-.1,.13c0,0,.12,.1,.18-.03,0,0-.01-.2-.11-.02-.1,.18,.04,.21,.04,.21,0,0,.21,.04,.32-.1,0,0,0,0,0-.02,0,0,0-.02,0-.02,0,0,0,0-.01-.01,0,0-.01,0-.02,0-.06,0-.34,.16-.26,.24s.21-.01,.21-.01c0,0-.13,.03-.09,.07,0,0,.06,.07,.14-.01,0,0-.22,.23-.36,.14,0,0-.1-.17,.06-.13,0,0,.05,0,.06,.08,0,0,.05,.15,.25,.02,0,0,.03-.02,.03-.03s-.14,.04-.1,.09c0,0,.02,.06,.12-.02,0,0-.12,.04-.1,.08"/></g></g><g id="k"><rect class="v" x="213.77" y="199.3" width="77.9" height="77.9" rx="15.09" ry="15.09" transform="translate(95.4 -71.39) rotate(19.75)"/><rect class="w" x="213.77" y="199.3" width="77.9" height="77.9" rx="15.09" ry="15.09" transform="translate(95.4 -71.39) rotate(19.75)"/><path class="ab" d="M255.56,220.01l-8.1-2.91c-.35-.13-.75,.05-.88,.4l-.58,1.46c-.03,.07-.06,.13-.11,.18l-22.59,28.1c-.3,.37-.14,.93,.31,1.09l5.79,2.08c.28,.1,.6,0,.79-.23l5.08-6.59c.18-.24,.5-.33,.79-.23l11.5,4.13c.28,.1,.46,.36,.46,.66l-.03,8.45c0,.29,.18,.56,.46,.66l6.56,2.35c.45,.16,.93-.17,.93-.65l.08-38.29c0-.29-.18-.56-.46-.66Zm-14.95,16.49l7.21-9.76c.41-.55,1.29-.24,1.26,.44l-.54,12.16c-.02,.47-.49,.78-.93,.62l-6.66-2.39c-.44-.16-.6-.69-.33-1.07Z"/><rect class="ab" x="264.12" y="235.12" width="7.6" height="28.24" rx="1.15" ry="1.15" transform="translate(100.01 -75.89) rotate(19.75)"/><circle class="ab" cx="275.25" cy="228.83" r="4.22"/><path class="af" d="M101.46,44.21l-32.04,19.79c-.23,.14-.54,.09-.71-.13l-12.88-16.87c-.13-.17-.36-.25-.57-.19l-6.64,1.86c-.19,.05-.33,.2-.37,.39l-7.95,32.45c-.05,.2,.02,.41,.18,.54l5.01,4.1c.15,.13,.37,.16,.55,.08l19.22-8.23c.24-.1,.53-.01,.67,.21l19.44,31.66c.11,.18,.32,.28,.53,.25l17.44-2.4c.22-.03,.39-.19,.45-.4l12.69-51.75c.05-.21-.03-.42-.2-.55l-14.21-10.77c-.18-.13-.42-.14-.6-.03Zm-52.86,31.46l4.29-17.49c.11-.47,.74-.56,.98-.14l6.37,10.83c.15,.25,.07,.57-.18,.72l-10.66,6.66c-.41,.25-.92-.11-.8-.58Zm40.99,14.08l-12.57-16.3c-.21-.27-.11-.67,.21-.81l18.6-8.3c.41-.18,.84,.18,.74,.62l-6.03,24.61c-.11,.44-.67,.55-.94,.2Z"/><path class="ak" d="M101.89,53.58l-.83-1.54c-.03-.06-.1-.11-.17-.12l-1.74-.19c-.18-.02-.26-.24-.14-.38l1.21-1.26c.05-.05,.07-.13,.06-.2l-.35-1.71c-.04-.18,.15-.33,.31-.25l1.57,.76c.07,.03,.14,.03,.21,0l1.52-.87c.16-.09,.36,.04,.33,.22l-.24,1.73c0,.07,.02,.15,.07,.19l1.29,1.18c.14,.12,.07,.35-.11,.38l-1.72,.31c-.07,.01-.13,.06-.16,.13l-.72,1.59c-.08,.17-.31,.18-.4,.01Z"/><path class="ak" d="M105.53,55.83l-.06-1.12s-.03-.09-.07-.11l-.96-.58c-.1-.06-.09-.21,.02-.26l1.04-.41s.08-.05,.09-.1l.26-1.09c.03-.12,.17-.15,.25-.06l.71,.87s.08,.06,.12,.05l1.12-.09c.12,0,.2,.12,.13,.22l-.61,.94s-.03,.09-.01,.13l.43,1.03c.05,.11-.05,.22-.17,.19l-1.08-.28s-.09,0-.13,.03l-.85,.73c-.09,.08-.23,.02-.24-.1Z"/></g><g id="l"><rect class="y" width="314.61" height="300.35"/></g></svg>